<svg xmlns="http://www.w3.org/2000/svg" xmlns:xlink="http://www.w3.org/1999/xlink" width="300" zoomAndPan="magnify" viewBox="0 0 224.87999 225" height="300" preserveAspectRatio="xMidYMid meet" version="1.0"><defs><clipPath id="7148a9ed86"><path d="M 0 0.0585938 L 223.378906 0.0585938 L 223.378906 224.9375 L 0 224.9375 Z M 0 0.0585938 " clip-rule="nonzero"/></clipPath></defs><g clip-path="url(#7148a9ed86)"><path fill="#a6a6a6" d="M 191.042969 32.828125 C 170.019531 11.785156 142.066406 0.175781 112.28125 0.175781 C 50.90625 0.175781 0.957031 50.117188 0.933594 111.511719 C 0.933594 131.132812 6.054688 150.296875 15.800781 167.171875 L 0 224.871094 L 59.027344 209.382812 C 75.292969 218.257812 93.605469 222.925781 112.234375 222.9375 L 112.28125 222.9375 C 173.644531 222.9375 223.605469 172.984375 223.617188 111.601562 C 223.617188 81.847656 212.0625 53.882812 191.03125 32.828125 Z M 112.28125 204.136719 L 112.246094 204.136719 C 95.648438 204.136719 79.351562 199.671875 65.140625 191.238281 L 61.761719 189.226562 L 26.730469 198.414062 L 36.074219 164.261719 L 33.875 160.761719 C 24.609375 146.03125 19.722656 129 19.730469 111.511719 C 19.753906 60.492188 61.273438 18.972656 112.3125 18.972656 C 137.035156 18.972656 160.265625 28.617188 177.742188 46.117188 C 195.21875 63.605469 204.828125 86.859375 204.816406 111.589844 C 204.796875 162.617188 163.277344 204.136719 112.269531 204.136719 Z M 163.042969 134.832031 C 160.265625 133.441406 146.589844 126.710938 144.035156 125.789062 C 141.476562 124.855469 139.632812 124.398438 137.777344 127.175781 C 135.921875 129.964844 130.589844 136.230469 128.96875 138.085938 C 127.347656 139.941406 125.722656 140.175781 122.933594 138.777344 C 120.15625 137.386719 111.191406 134.441406 100.558594 124.964844 C 92.292969 117.589844 86.703125 108.476562 85.082031 105.6875 C 83.460938 102.902344 84.914062 101.402344 86.304688 100.011719 C 87.550781 98.769531 89.082031 96.757812 90.480469 95.132812 C 91.871094 93.511719 92.335938 92.347656 93.261719 90.492188 C 94.191406 88.636719 93.726562 87.011719 93.027344 85.613281 C 92.328125 84.222656 86.769531 70.523438 84.449219 64.960938 C 82.195312 59.539062 79.894531 60.269531 78.195312 60.183594 C 76.570312 60.105469 74.714844 60.082031 72.859375 60.082031 C 71.007812 60.082031 67.996094 60.769531 65.441406 63.558594 C 62.882812 66.347656 55.707031 73.082031 55.707031 86.769531 C 55.707031 100.457031 65.671875 113.6875 67.074219 115.554688 C 68.460938 117.410156 86.695312 145.507812 114.601562 157.5625 C 121.234375 160.429688 126.425781 162.140625 130.46875 163.429688 C 137.132812 165.550781 143.199219 165.25 147.988281 164.53125 C 153.332031 163.730469 164.445312 157.796875 166.765625 151.296875 C 169.085938 144.796875 169.085938 139.230469 168.386719 138.066406 C 167.6875 136.898438 165.832031 136.210938 163.054688 134.808594 Z M 163.042969 134.832031 " fill-opacity="1" fill-rule="evenodd"/></g></svg>