<svg xmlns="http://www.w3.org/2000/svg" xmlns:xlink="http://www.w3.org/1999/xlink" width="300" zoomAndPan="magnify" viewBox="0 0 224.87999 225" height="300" preserveAspectRatio="xMidYMid meet" version="1.0"><defs><clipPath id="b9cdd1bb4c"><path d="M 0 0.0585938 L 224.761719 0.0585938 L 224.761719 224.9375 L 0 224.9375 Z M 0 0.0585938 " clip-rule="nonzero"/></clipPath></defs><g clip-path="url(#b9cdd1bb4c)"><path fill="#a6a6a6" d="M 162.265625 224.941406 L 62.613281 224.941406 C 28.21875 224.941406 0 196.71875 0 162.328125 L 0 62.671875 C 0 28.28125 28.21875 0.0585938 62.613281 0.0585938 L 162.265625 0.0585938 C 196.660156 0.0585938 224.878906 28.28125 224.878906 62.671875 L 224.878906 162.328125 C 224.878906 196.71875 196.660156 224.941406 162.265625 224.941406 Z M 62.613281 14.171875 C 36.15625 14.171875 14.109375 36.21875 14.109375 62.671875 L 14.109375 162.328125 C 14.109375 188.78125 36.15625 210.828125 62.613281 210.828125 L 162.265625 210.828125 C 188.722656 210.828125 210.769531 188.78125 210.769531 162.328125 L 210.769531 62.671875 C 210.769531 36.21875 188.722656 14.171875 162.265625 14.171875 Z M 62.613281 14.171875 " fill-opacity="1" fill-rule="evenodd"/></g><path fill="#a6a6a6" d="M 112.441406 151.304688 C 91.273438 151.304688 73.636719 133.664062 73.636719 112.5 C 73.636719 91.335938 91.273438 73.695312 112.441406 73.695312 C 133.605469 73.695312 151.242188 91.335938 151.242188 112.5 C 151.242188 133.664062 133.605469 151.304688 112.441406 151.304688 Z M 112.441406 87.808594 C 98.769531 87.808594 87.746094 98.832031 87.746094 112.5 C 87.746094 126.167969 98.769531 137.191406 112.441406 137.191406 C 126.109375 137.191406 137.132812 126.167969 137.132812 112.5 C 137.132812 98.832031 126.109375 87.808594 112.441406 87.808594 Z M 112.441406 87.808594 " fill-opacity="1" fill-rule="evenodd"/><path fill="#a6a6a6" d="M 112.441406 175.996094 C 77.605469 175.996094 48.945312 147.335938 48.945312 112.5 C 48.945312 77.664062 77.605469 49.003906 112.441406 49.003906 C 147.273438 49.003906 175.933594 77.664062 175.933594 112.5 C 175.933594 147.335938 147.273438 175.996094 112.441406 175.996094 Z M 112.441406 63.113281 C 85.101562 63.113281 63.054688 85.160156 63.054688 112.5 C 63.054688 139.839844 85.101562 161.886719 112.441406 161.886719 C 139.777344 161.886719 161.824219 139.839844 161.824219 112.5 C 161.824219 85.160156 139.777344 63.113281 112.441406 63.113281 Z M 112.441406 63.113281 " fill-opacity="1" fill-rule="evenodd"/><path fill="#a6a6a6" d="M 60.410156 52.089844 L 44.976562 52.089844 C 41.007812 52.089844 37.921875 49.003906 37.921875 45.035156 C 37.921875 41.066406 41.007812 37.980469 44.976562 37.980469 L 60.410156 37.980469 C 64.378906 37.980469 67.464844 41.066406 67.464844 45.035156 C 67.464844 49.003906 64.378906 52.089844 60.410156 52.089844 Z M 60.410156 52.089844 " fill-opacity="1" fill-rule="evenodd"/></svg>