<svg xmlns="http://www.w3.org/2000/svg" xmlns:xlink="http://www.w3.org/1999/xlink" width="300" zoomAndPan="magnify" viewBox="0 0 224.87999 225" height="300" preserveAspectRatio="xMidYMid meet" version="1.0"><defs><clipPath id="efe48a439f"><path d="M 0 0.0585938 L 224.761719 0.0585938 L 224.761719 224.9375 L 0 224.9375 Z M 0 0.0585938 " clip-rule="nonzero"/></clipPath><clipPath id="134821009f"><path d="M 62 41 L 165 41 L 165 224.9375 L 62 224.9375 Z M 62 41 " clip-rule="nonzero"/></clipPath></defs><g clip-path="url(#efe48a439f)"><path fill="#a6a6a6" d="M 224.910156 112.519531 C 224.910156 50.40625 174.566406 0.0585938 112.460938 0.0585938 C 50.355469 0.0585938 0 50.40625 0 112.519531 C 0 165.257812 36.304688 209.515625 85.289062 221.667969 L 85.289062 146.886719 L 62.09375 146.886719 L 62.09375 112.519531 L 85.289062 112.519531 L 85.289062 97.714844 C 85.289062 59.4375 102.609375 41.695312 140.1875 41.695312 C 147.3125 41.695312 159.605469 43.089844 164.632812 44.492188 L 164.632812 75.640625 C 161.976562 75.355469 157.367188 75.214844 151.644531 75.214844 C 133.203125 75.214844 126.074219 82.199219 126.074219 100.359375 L 126.074219 112.511719 L 162.804688 112.511719 L 156.496094 146.878906 L 126.074219 146.878906 L 126.074219 224.144531 C 181.761719 217.421875 224.910156 170 224.910156 112.511719 Z M 224.910156 112.519531 " fill-opacity="1" fill-rule="nonzero"/></g><g clip-path="url(#134821009f)"><path fill="#ffffff" d="M 156.507812 146.878906 L 162.816406 112.511719 L 126.085938 112.511719 L 126.085938 100.359375 C 126.085938 82.199219 133.210938 75.214844 151.652344 75.214844 C 157.375 75.214844 161.988281 75.355469 164.644531 75.640625 L 164.644531 44.492188 C 159.617188 43.097656 147.324219 41.695312 140.195312 41.695312 C 102.621094 41.695312 85.300781 59.4375 85.300781 97.714844 L 85.300781 112.519531 L 62.105469 112.519531 L 62.105469 146.886719 L 85.300781 146.886719 L 85.300781 221.667969 C 94 223.828125 103.09375 224.980469 112.46875 224.980469 C 117.082031 224.980469 121.625 224.699219 126.097656 224.152344 L 126.097656 146.886719 L 156.519531 146.886719 Z M 156.507812 146.878906 " fill-opacity="1" fill-rule="nonzero"/></g></svg>