<svg xmlns="http://www.w3.org/2000/svg" xmlns:xlink="http://www.w3.org/1999/xlink" width="300" zoomAndPan="magnify" viewBox="0 0 224.87999 225" height="300" preserveAspectRatio="xMidYMid meet" version="1.0"><defs><clipPath id="84e64bb4f1"><path d="M 0 0.0585938 L 224.761719 0.0585938 L 224.761719 224.9375 L 0 224.9375 Z M 0 0.0585938 " clip-rule="nonzero"/></clipPath></defs><g clip-path="url(#84e64bb4f1)"><path fill="#a6a6a6" d="M 224.921875 112.519531 C 224.917969 114.359375 224.875 116.199219 224.785156 118.039062 C 224.695312 119.875 224.558594 121.710938 224.378906 123.542969 C 224.199219 125.375 223.972656 127.199219 223.703125 129.019531 C 223.433594 130.84375 223.117188 132.65625 222.757812 134.460938 C 222.398438 136.265625 221.996094 138.058594 221.550781 139.84375 C 221.101562 141.628906 220.613281 143.402344 220.078125 145.164062 C 219.542969 146.925781 218.964844 148.671875 218.347656 150.40625 C 217.726562 152.140625 217.0625 153.855469 216.359375 155.554688 C 215.65625 157.257812 214.910156 158.9375 214.121094 160.601562 C 213.335938 162.265625 212.507812 163.910156 211.640625 165.535156 C 210.773438 167.15625 209.867188 168.757812 208.921875 170.335938 C 207.972656 171.914062 206.988281 173.46875 205.96875 175 C 204.945312 176.53125 203.886719 178.035156 202.789062 179.511719 C 201.691406 180.992188 200.558594 182.441406 199.394531 183.863281 C 198.226562 185.285156 197.023438 186.679688 195.789062 188.042969 C 194.550781 189.40625 193.28125 190.738281 191.980469 192.042969 C 190.679688 193.34375 189.347656 194.609375 187.984375 195.847656 C 186.621094 197.082031 185.226562 198.285156 183.804688 199.453125 C 182.382812 200.621094 180.929688 201.753906 179.453125 202.847656 C 177.972656 203.945312 176.46875 205.003906 174.9375 206.027344 C 173.410156 207.050781 171.855469 208.035156 170.277344 208.980469 C 168.695312 209.925781 167.097656 210.832031 165.472656 211.699219 C 163.851562 212.570312 162.207031 213.394531 160.542969 214.183594 C 158.878906 214.96875 157.195312 215.714844 155.496094 216.417969 C 153.796875 217.125 152.078125 217.785156 150.347656 218.40625 C 148.613281 219.027344 146.867188 219.601562 145.105469 220.136719 C 143.34375 220.671875 141.570312 221.164062 139.785156 221.609375 C 138 222.058594 136.203125 222.460938 134.398438 222.820312 C 132.59375 223.179688 130.78125 223.492188 128.960938 223.761719 C 127.140625 224.03125 125.316406 224.257812 123.484375 224.4375 C 121.652344 224.617188 119.816406 224.753906 117.976562 224.84375 C 116.140625 224.933594 114.300781 224.980469 112.460938 224.980469 C 110.621094 224.980469 108.78125 224.933594 106.941406 224.84375 C 105.105469 224.753906 103.269531 224.617188 101.4375 224.4375 C 99.605469 224.257812 97.777344 224.03125 95.957031 223.761719 C 94.136719 223.492188 92.324219 223.179688 90.519531 222.820312 C 88.714844 222.460938 86.917969 222.058594 85.132812 221.609375 C 83.347656 221.164062 81.574219 220.671875 79.816406 220.136719 C 78.054688 219.601562 76.304688 219.027344 74.574219 218.40625 C 72.839844 217.785156 71.125 217.125 69.421875 216.417969 C 67.722656 215.714844 66.039062 214.96875 64.378906 214.183594 C 62.714844 213.394531 61.070312 212.570312 59.445312 211.699219 C 57.824219 210.832031 56.222656 209.925781 54.644531 208.980469 C 53.066406 208.035156 51.511719 207.050781 49.980469 206.027344 C 48.449219 205.003906 46.945312 203.945312 45.46875 202.847656 C 43.988281 201.753906 42.539062 200.621094 41.117188 199.453125 C 39.695312 198.285156 38.300781 197.082031 36.9375 195.847656 C 35.574219 194.609375 34.238281 193.34375 32.9375 192.042969 C 31.636719 190.738281 30.367188 189.40625 29.132812 188.042969 C 27.898438 186.679688 26.695312 185.285156 25.527344 183.863281 C 24.359375 182.441406 23.226562 180.992188 22.132812 179.511719 C 21.035156 178.035156 19.976562 176.53125 18.953125 175 C 17.929688 173.46875 16.945312 171.914062 16 170.335938 C 15.054688 168.757812 14.148438 167.15625 13.277344 165.535156 C 12.410156 163.910156 11.585938 162.265625 10.796875 160.601562 C 10.011719 158.9375 9.265625 157.257812 8.558594 155.554688 C 7.855469 153.855469 7.195312 152.140625 6.574219 150.40625 C 5.953125 148.671875 5.375 146.925781 4.84375 145.164062 C 4.308594 143.402344 3.816406 141.628906 3.371094 139.84375 C 2.921875 138.058594 2.519531 136.265625 2.160156 134.460938 C 1.800781 132.65625 1.488281 130.84375 1.21875 129.019531 C 0.945312 127.199219 0.722656 125.375 0.542969 123.542969 C 0.359375 121.710938 0.226562 119.875 0.136719 118.039062 C 0.046875 116.199219 0 114.359375 0 112.519531 C 0 110.679688 0.046875 108.839844 0.136719 107 C 0.226562 105.164062 0.359375 103.328125 0.542969 101.496094 C 0.722656 99.664062 0.945312 97.839844 1.21875 96.019531 C 1.488281 94.199219 1.800781 92.386719 2.160156 90.582031 C 2.519531 88.773438 2.921875 86.980469 3.371094 85.195312 C 3.816406 83.410156 4.308594 81.636719 4.84375 79.875 C 5.375 78.113281 5.953125 76.367188 6.574219 74.632812 C 7.195312 72.902344 7.855469 71.183594 8.558594 69.484375 C 9.265625 67.78125 10.011719 66.101562 10.796875 64.4375 C 11.585938 62.773438 12.410156 61.128906 13.277344 59.507812 C 14.148438 57.882812 15.054688 56.28125 16 54.703125 C 16.945312 53.125 17.929688 51.570312 18.953125 50.039062 C 19.976562 48.511719 21.035156 47.007812 22.132812 45.527344 C 23.226562 44.050781 24.359375 42.597656 25.527344 41.175781 C 26.695312 39.753906 27.898438 38.359375 29.132812 36.996094 C 30.367188 35.632812 31.636719 34.300781 32.9375 33 C 34.238281 31.699219 35.574219 30.429688 36.9375 29.191406 C 38.300781 27.957031 39.695312 26.753906 41.117188 25.585938 C 42.539062 24.417969 43.988281 23.289062 45.46875 22.191406 C 46.945312 21.09375 48.449219 20.035156 49.980469 19.011719 C 51.511719 17.992188 53.066406 17.007812 54.644531 16.058594 C 56.222656 15.113281 57.824219 14.207031 59.445312 13.339844 C 61.070312 12.472656 62.714844 11.644531 64.378906 10.855469 C 66.039062 10.070312 67.722656 9.324219 69.421875 8.621094 C 71.125 7.917969 72.839844 7.253906 74.574219 6.632812 C 76.304688 6.015625 78.054688 5.4375 79.816406 4.902344 C 81.574219 4.367188 83.347656 3.878906 85.132812 3.429688 C 86.917969 2.984375 88.714844 2.578125 90.519531 2.222656 C 92.324219 1.863281 94.136719 1.546875 95.957031 1.277344 C 97.777344 1.007812 99.605469 0.78125 101.4375 0.601562 C 103.269531 0.421875 105.105469 0.285156 106.941406 0.195312 C 108.78125 0.105469 110.621094 0.0585938 112.460938 0.0585938 C 114.300781 0.0585938 116.140625 0.105469 117.976562 0.195312 C 119.816406 0.285156 121.652344 0.421875 123.484375 0.601562 C 125.316406 0.78125 127.140625 1.007812 128.960938 1.277344 C 130.78125 1.546875 132.59375 1.863281 134.398438 2.222656 C 136.203125 2.578125 138 2.984375 139.785156 3.429688 C 141.570312 3.878906 143.34375 4.367188 145.105469 4.902344 C 146.867188 5.4375 148.613281 6.015625 150.347656 6.632812 C 152.078125 7.253906 153.796875 7.917969 155.496094 8.621094 C 157.195312 9.324219 158.878906 10.070312 160.542969 10.855469 C 162.207031 11.644531 163.851562 12.472656 165.472656 13.339844 C 167.097656 14.207031 168.695312 15.113281 170.277344 16.058594 C 171.855469 17.007812 173.410156 17.992188 174.9375 19.011719 C 176.46875 20.035156 177.972656 21.09375 179.453125 22.191406 C 180.929688 23.289062 182.382812 24.417969 183.804688 25.585938 C 185.226562 26.753906 186.621094 27.957031 187.984375 29.191406 C 189.347656 30.429688 190.679688 31.699219 191.980469 33 C 193.28125 34.300781 194.550781 35.632812 195.789062 36.996094 C 197.023438 38.359375 198.226562 39.753906 199.394531 41.175781 C 200.558594 42.597656 201.691406 44.050781 202.789062 45.527344 C 203.886719 47.007812 204.945312 48.511719 205.96875 50.039062 C 206.988281 51.570312 207.972656 53.125 208.921875 54.703125 C 209.867188 56.28125 210.773438 57.882812 211.640625 59.507812 C 212.507812 61.128906 213.335938 62.773438 214.121094 64.4375 C 214.910156 66.101562 215.65625 67.78125 216.359375 69.484375 C 217.0625 71.183594 217.726562 72.902344 218.347656 74.632812 C 218.964844 76.367188 219.542969 78.113281 220.078125 79.875 C 220.613281 81.636719 221.101562 83.410156 221.550781 85.195312 C 221.996094 86.980469 222.398438 88.773438 222.757812 90.582031 C 223.117188 92.386719 223.433594 94.199219 223.703125 96.019531 C 223.972656 97.839844 224.199219 99.664062 224.378906 101.496094 C 224.558594 103.328125 224.695312 105.164062 224.785156 107 C 224.875 108.839844 224.917969 110.679688 224.921875 112.519531 Z M 224.921875 112.519531 " fill-opacity="1" fill-rule="nonzero"/></g><path fill="#b4b4b4" d="M 97.53125 96.441406 L 97.53125 90.339844 C 95.484375 90.0625 93.40625 89.890625 91.289062 89.890625 C 65.757812 89.890625 44.984375 110.664062 44.984375 136.195312 C 44.984375 151.863281 52.816406 165.722656 64.757812 174.113281 C 57.046875 165.835938 52.476562 154.75 52.476562 142.578125 C 52.476562 117.414062 72.507812 97.023438 97.53125 96.441406 Z M 97.53125 96.441406 " fill-opacity="1" fill-rule="nonzero"/><path fill="#b4b4b4" d="M 98.621094 163.855469 C 110.011719 163.855469 119.441406 154.660156 119.859375 143.375 L 119.960938 42.6875 L 138.214844 42.6875 C 138.214844 42.6875 138.183594 42.550781 138.183594 42.550781 C 137.804688 40.484375 137.59375 38.34375 137.59375 36.167969 L 112.441406 36.167969 L 112.398438 136.996094 C 111.980469 148.289062 102.683594 157.347656 91.289062 157.347656 C 87.746094 157.347656 84.417969 156.457031 81.484375 154.917969 C 85.328125 160.242188 91.570312 163.867188 98.628906 163.867188 Z M 98.621094 163.855469 " fill-opacity="1" fill-rule="nonzero"/><path fill="#b4b4b4" d="M 172.605469 77.058594 L 172.605469 71.148438 C 165.574219 71.148438 159.035156 69.0625 153.542969 65.476562 C 158.425781 71.089844 165.066406 75.441406 172.605469 77.050781 Z M 172.605469 77.058594 " fill-opacity="1" fill-rule="nonzero"/><path fill="#545454" d="M 153.542969 65.488281 C 148.1875 59.335938 144.933594 51.316406 144.933594 42.539062 L 138.082031 42.539062 C 139.859375 52.125 145.664062 60.355469 153.542969 65.488281 Z M 153.542969 65.488281 " fill-opacity="1" fill-rule="nonzero"/><path fill="#545454" d="M 91.289062 114.847656 C 79.625 114.847656 70 124.523438 70 136.1875 C 70 144.304688 74.742188 151.363281 81.472656 154.910156 C 78.96875 151.433594 77.46875 147.179688 77.46875 142.578125 C 77.46875 130.914062 86.957031 121.425781 98.621094 121.425781 C 100.796875 121.425781 102.882812 121.785156 104.859375 122.40625 L 104.859375 96.722656 C 102.8125 96.441406 100.738281 96.273438 98.621094 96.273438 C 98.25 96.273438 97.890625 96.292969 97.53125 96.304688 L 97.429688 96.304688 C 97.429688 96.304688 97.363281 115.746094 97.363281 115.746094 C 95.382812 115.125 93.46875 114.855469 91.289062 114.855469 Z M 91.289062 114.847656 " fill-opacity="1" fill-rule="nonzero"/><path fill="#545454" d="M 172.605469 76.761719 L 172.484375 76.742188 L 172.484375 96.164062 C 159.433594 96.164062 147.308594 91.871094 137.445312 84.789062 L 137.445312 136.1875 C 137.445312 161.71875 116.824219 182.359375 91.289062 182.359375 C 81.425781 182.359375 72.277344 179.375 64.746094 174.09375 C 73.207031 183.167969 85.257812 188.871094 98.621094 188.871094 C 124.152344 188.871094 144.921875 168.101562 144.921875 142.566406 L 144.921875 91.441406 C 154.789062 98.519531 166.882812 102.695312 179.925781 102.695312 L 179.925781 77.539062 C 177.40625 77.539062 174.960938 77.269531 172.59375 76.761719 Z M 172.605469 76.761719 " fill-opacity="1" fill-rule="nonzero"/><path fill="#ffffff" d="M 137.59375 136.1875 L 137.59375 85.058594 C 147.460938 92.140625 159.554688 96.3125 172.59375 96.3125 L 172.59375 76.761719 C 165.054688 75.144531 158.425781 71.097656 153.53125 65.488281 C 145.652344 60.34375 139.960938 52.125 138.183594 42.539062 L 119.757812 42.539062 L 119.71875 143.367188 C 119.300781 154.660156 110.003906 163.71875 98.609375 163.71875 C 91.550781 163.71875 85.308594 160.230469 81.464844 154.898438 C 74.734375 151.355469 70.128906 144.304688 70.128906 136.175781 C 70.128906 124.511719 79.617188 115.027344 91.28125 115.027344 C 93.457031 115.027344 95.542969 115.386719 97.519531 116.003906 L 97.519531 96.28125 C 72.488281 96.871094 52.304688 117.394531 52.304688 142.566406 C 52.304688 154.738281 57.039062 165.824219 64.738281 174.101562 C 72.257812 179.386719 81.402344 182.492188 91.28125 182.492188 C 116.8125 182.492188 137.585938 161.71875 137.585938 136.1875 Z M 137.59375 136.1875 " fill-opacity="1" fill-rule="nonzero"/></svg>